<svg xmlns="http://www.w3.org/2000/svg" xmlns:xlink="http://www.w3.org/1999/xlink" viewBox="0 0 541.1 146.22"><defs><style>.cls-1{isolation:isolate;}.cls-2{fill:#f5f5f5;}.cls-3{fill:#fff;}.cls-4{fill:#a7a9ac;}.cls-5{fill:#005596;}.cls-6{mix-blend-mode:multiply;fill:url(#linear-gradient);}</style><linearGradient id="linear-gradient" x1="117.05" y1="63.93" x2="62.51" y2="137.78" gradientUnits="userSpaceOnUse"><stop offset="0" stop-color="#fff"/><stop offset="1"/></linearGradient></defs><title>Legends_ Horizontal_WHT</title><g class="cls-1"><g id="Layer_1" data-name="Layer 1"><path class="cls-2" d="M178,112.26v-4.39l1.75-.4c1.76-.4,2.87-.88,2.87-3.67V66.08c0-2.71-1.28-3.27-3.35-3.75L178,62V58h16.19v4l-1.36.32c-2.07.48-3.35,1-3.35,3.75v37.57c0,3,1.75,3,4.07,3h10.77c3.83,0,4.23-.88,4.63-2.47l.48-1.75h4.15v9.81Z" transform="translate(-28.89 -20.22)"/><path class="cls-2" d="M229.49,112.26v-4l1.83-.4c1.76-.4,2.87-.88,2.87-3.67V66.08c0-2.71-1.28-3.27-3.35-3.75L229.49,62V58h36.45v9.81h-4.63l-.48-1.67c-.56-1.68-1-2.55-3.83-2.55H243.85c-2.31,0-2.87.8-2.87,3.83v15h10.13c3.11,0,3.51-.32,4.07-2l.56-1.83h3.91V91.44h-3.91l-.64-1.83c-.56-1.68-.88-2-4-2H241v15.23c0,3,.56,3.83,2.87,3.83h14c2.79,0,3.35-.88,3.83-2.47l.48-1.75h4.63v9.81Z" transform="translate(-28.89 -20.22)"/><path class="cls-2" d="M321.7,112.26l-1.76-3.75h-.32c-2.47,2.79-8.14,4.62-12.68,4.62-10.45,0-21.06-4.38-21.06-20.1V78.28c0-15.16,9.89-21.14,21.06-21.14a37.49,37.49,0,0,1,19.46,5.11c0,8.38-.24,10.93-.24,10.93H319.7V66.32c-3-2.07-8.14-3.19-12.76-3.19-6.54,0-14.28,3.43-14.28,14.6V92.88c0,13.24,10.13,14.28,14.28,14.28,5.1,0,10.29-2.55,12.68-6.54V91.84l-6.54-.8V85.94h13.48v26.32Z" transform="translate(-28.89 -20.22)"/><path class="cls-2" d="M346.5,112.26v-4l1.84-.4c1.75-.4,2.87-.88,2.87-3.67V66.08c0-2.71-1.28-3.27-3.35-3.75L346.5,62V58H383v9.81h-4.62l-.48-1.67c-.56-1.68-1-2.55-3.83-2.55H360.86c-2.31,0-2.87.8-2.87,3.83v15h10.13c3.11,0,3.51-.32,4.07-2l.56-1.83h3.91V91.44h-3.91l-.64-1.83c-.56-1.68-.88-2-4-2H358v15.23c0,3,.56,3.83,2.87,3.83h14c2.79,0,3.35-.88,3.83-2.47l.48-1.75h4.63v9.81Z" transform="translate(-28.89 -20.22)"/><path class="cls-2" d="M440.62,112.26,414.3,68.31V104.2c0,2.79,1.12,3.27,2.87,3.67l1.83.4v4H403.13v-4l1.83-.4c1.75-.4,3-.88,3-3.67V66.08c0-2.71-1.28-3.27-3.27-3.75L403.29,62V58h12.28l25,41.64V66.08c0-2.71-1.28-3.27-3.35-3.75L435.83,62V58h15.79v4l-1.36.32c-2.07.48-3.35,1-3.35,3.75v46.18Z" transform="translate(-28.89 -20.22)"/><path class="cls-2" d="M470.29,112.26v-4l1.83-.4c1.75-.4,2.87-.88,2.87-3.67V66.08c0-2.71-1.28-3.27-3.35-3.75L470.29,62V58H493.5C506.18,58,515,66.24,515,85.62c0,12.84-5.74,26.64-23,26.64Zm21.85-5.58c8.06,0,15.8-4.95,15.8-21.06,0-15.31-5.19-22-15.16-22h-8.14c-2.31,0-2.87.4-2.87,3v36.93c0,3.11.56,3.11,2.87,3.11Z" transform="translate(-28.89 -20.22)"/><path class="cls-2" d="M562.17,72.38l-.48-6.86c-2.31-1.51-6.94-2.39-9.81-2.39-6.14,0-11.65,1.84-11.65,8,0,13.8,29.75,6.22,29.75,26,0,9.89-6.46,16-18.58,16-9.65,0-15-2.55-18.18-4.31,0-8.37.64-11,.64-11h5.58l.8,6.94c2.87,1.68,7.74,2.39,11.17,2.39,6.94,0,11.8-3.51,11.8-9.33,0-13.88-29.75-8.37-29.75-25.76,0-11.41,8.37-14.84,18.19-14.84a33.16,33.16,0,0,1,16.83,4.15c0,8.37-.48,11.09-.48,11.09Z" transform="translate(-28.89 -20.22)"/><path class="cls-3" d="M156.76,24.16l-.3-3.94h-127l-.3,3.94a213.82,213.82,0,0,0,4.68,56.06c8.62,39.53,27.91,68.78,55.77,84.62L93,166.44l3.4-1.63c27.83-15.84,47.1-45.09,55.72-84.59A213.8,213.8,0,0,0,156.76,24.16Z" transform="translate(-28.89 -20.22)"/><path class="cls-4" d="M93,161.92l.07,0,.07,0a97.56,97.56,0,0,0,28.6-24.18H64.44A97.46,97.46,0,0,0,93,161.92Z" transform="translate(-28.89 -20.22)"/><path class="cls-4" d="M66.81,38.8c0-14.31-8.88-14.31-8.88-14.31H33.47S28.32,90.72,62.68,135.55c2-2.39,4.13-7.35,4.13-17.5Z" transform="translate(-28.89 -20.22)"/><path class="cls-5" d="M85.79,125.26h24.6c15.42,0,20.42-1.84,26-10.93,20-41.91,16.32-89.84,16.32-89.84H93c-7.21,0-7.21,7-7.21,14.31Z" transform="translate(-28.89 -20.22)"/><path class="cls-6" d="M85.79,125.26h24.6c15.42,0,20.42-1.84,26-10.93,20-41.91,16.32-89.84,16.32-89.84H93c-7.21,0-7.21,7-7.21,14.31Z" transform="translate(-28.89 -20.22)"/></g></g></svg>